<svg width="216" height="35" viewBox="0 0 216 35" fill="none" xmlns="http://www.w3.org/2000/svg">
<path d="M14.363 11.9421C13.6964 11.8354 12.7364 11.7821 11.483 11.7821C10.6564 11.7821 10.0697 11.8354 9.72302 11.9421V6.14206C11.6164 6.16873 13.5764 6.40873 15.603 6.86206V12.0621L14.363 11.9421ZM9.44302 27.1821C7.36302 27.1821 5.70968 26.9287 4.48302 26.4221C3.25635 25.9154 2.34968 25.1687 1.76302 24.1821C1.22968 23.3287 0.883018 22.3287 0.723018 21.1821C0.589684 20.0354 0.523018 18.5421 0.523018 16.7021C0.523018 15.0221 0.589684 13.6221 0.723018 12.5021C0.856351 11.3821 1.13635 10.3954 1.56302 9.54206C2.06968 8.55539 2.82968 7.79539 3.84302 7.26206C4.88302 6.70206 6.28302 6.35539 8.04302 6.22206V16.6621C8.04302 17.8354 8.06968 18.7154 8.12302 19.3021C8.20302 19.8887 8.34968 20.3421 8.56302 20.6621C8.80302 20.9821 9.13635 21.2087 9.56302 21.3421C10.0164 21.4754 10.6564 21.5421 11.483 21.5421C12.8964 21.5421 13.8697 21.5021 14.403 21.4221L15.763 21.2621V26.4621C13.7897 26.9421 11.683 27.1821 9.44302 27.1821ZM30.1568 14.2221C30.1568 13.5287 30.1301 13.0354 30.0768 12.7421C30.0234 12.4487 29.8634 12.2354 29.5968 12.1021C29.3568 11.9687 28.9034 11.8754 28.2368 11.8221C27.8368 11.7954 26.9701 11.7821 25.6368 11.7821C24.3568 11.7821 23.1701 11.8354 22.0768 11.9421L19.9568 12.0621V6.86206C22.4634 6.38206 25.1701 6.14206 28.0768 6.14206C30.3168 6.14206 32.0634 6.30206 33.3168 6.62206C34.5968 6.94206 35.5568 7.44873 36.1968 8.14206C36.7568 8.78206 37.1168 9.59539 37.2768 10.5821C37.4634 11.5687 37.5568 12.9421 37.5568 14.7021V26.8621H30.1568V14.2221ZM24.2368 27.1421C22.3968 27.1421 21.0368 26.6354 20.1568 25.6221C19.2768 24.5821 18.8368 23.0221 18.8368 20.9421C18.8368 19.6621 18.9301 18.6354 19.1168 17.8621C19.3034 17.0621 19.6234 16.4354 20.0768 15.9821C20.5301 15.5021 21.1568 15.1687 21.9568 14.9821C22.7568 14.7687 23.8101 14.6621 25.1168 14.6621L28.4768 14.7421V18.3021H28.0768C27.4634 18.3021 27.0634 18.3154 26.8768 18.3421C26.3434 18.3687 26.0634 18.6221 26.0368 19.1021C26.0101 19.2621 25.9968 19.5954 25.9968 20.1021C25.9968 20.5021 26.0101 20.8087 26.0368 21.0221C26.0901 21.2354 26.1701 21.4087 26.2768 21.5421C26.4101 21.7287 26.6101 21.8354 26.8768 21.8621C27.2501 21.9154 27.6501 21.9421 28.0768 21.9421H28.4768V26.0221C27.8901 26.4754 27.2634 26.7687 26.5968 26.9021C25.9568 27.0621 25.1701 27.1421 24.2368 27.1421ZM55.1815 27.1421C54.2215 27.1421 53.4348 27.0621 52.8215 26.9021C52.2081 26.7687 51.6348 26.4887 51.1015 26.0621V20.9821H51.5415C52.1281 20.9821 52.5415 20.9554 52.7815 20.9021C53.0481 20.8221 53.2481 20.6621 53.3815 20.4221C53.5148 20.1287 53.5948 19.7021 53.6215 19.1421C53.6481 18.7421 53.6615 17.9154 53.6615 16.6621C53.6615 15.4087 53.6481 14.5821 53.6215 14.1821C53.5948 13.5954 53.5148 13.1687 53.3815 12.9021C53.2748 12.6354 53.0748 12.4754 52.7815 12.4221C52.4081 12.3687 51.9948 12.3421 51.5415 12.3421H51.1015V7.26206C51.6348 6.86206 52.2215 6.58206 52.8615 6.42206C53.5281 6.26206 54.3015 6.18206 55.1815 6.18206C56.2481 6.18206 57.1548 6.35539 57.9015 6.70206C58.6748 7.04873 59.3015 7.60873 59.7815 8.38206C60.7148 9.92873 61.1815 12.6621 61.1815 16.5821C61.1815 20.4754 60.7148 23.2221 59.7815 24.8221C58.8481 26.3687 57.3148 27.1421 55.1815 27.1421ZM42.0215 6.46206H49.4215V34.8221H42.0215V6.46206ZM78.3065 27.1421C77.3465 27.1421 76.5598 27.0621 75.9465 26.9021C75.3331 26.7687 74.7598 26.4887 74.2265 26.0621V20.9821H74.6665C75.2531 20.9821 75.6665 20.9554 75.9065 20.9021C76.1731 20.8221 76.3731 20.6621 76.5065 20.4221C76.6398 20.1287 76.7198 19.7021 76.7465 19.1421C76.7731 18.7421 76.7865 17.9154 76.7865 16.6621C76.7865 15.4087 76.7731 14.5821 76.7465 14.1821C76.7198 13.5954 76.6398 13.1687 76.5065 12.9021C76.3998 12.6354 76.1998 12.4754 75.9065 12.4221C75.5331 12.3687 75.1198 12.3421 74.6665 12.3421H74.2265V7.26206C74.7598 6.86206 75.3465 6.58206 75.9865 6.42206C76.6531 6.26206 77.4265 6.18206 78.3065 6.18206C79.3731 6.18206 80.2798 6.35539 81.0265 6.70206C81.7998 7.04873 82.4265 7.60873 82.9065 8.38206C83.8398 9.92873 84.3065 12.6621 84.3065 16.5821C84.3065 20.4754 83.8398 23.2221 82.9065 24.8221C81.9731 26.3687 80.4398 27.1421 78.3065 27.1421ZM65.1465 6.46206H72.5465V34.8221H65.1465V6.46206ZM93.9915 27.1421C91.5915 27.1421 89.9781 26.4087 89.1515 24.9421C88.7781 24.3021 88.5248 23.5287 88.3915 22.6221C88.2581 21.6887 88.1915 20.5554 88.1915 19.2221V6.46206H95.5915V16.1021C95.5915 17.5154 95.6048 18.4487 95.6315 18.9021C95.6848 19.5687 95.7648 20.0487 95.8715 20.3421C95.9781 20.6354 96.1515 20.8221 96.3915 20.9021C96.6315 20.9554 97.0581 20.9821 97.6715 20.9821H98.0715V25.9821C97.0315 26.7554 95.6715 27.1421 93.9915 27.1421ZM99.7515 6.46206H107.151V26.8621H99.7515V6.46206ZM110.149 6.46206H113.909V0.542058H121.309V6.46206H125.789V12.1021H110.149V6.46206ZM113.909 13.7021H121.309V26.8621H113.909V13.7021ZM137.024 14.6621H139.824C139.824 13.1687 139.677 12.2087 139.384 11.7821C139.224 11.5421 139.011 11.3954 138.744 11.3421C138.477 11.2621 138.091 11.2221 137.584 11.2221H137.024V6.14206H137.584C139.877 6.14206 141.637 6.32873 142.864 6.70206C144.117 7.07539 145.037 7.68873 145.624 8.54206C146.157 9.28873 146.477 10.2487 146.584 11.4221C146.717 12.5954 146.784 14.3554 146.784 16.7021V18.3021H137.024V14.6621ZM138.384 27.1821C135.931 27.1821 133.997 26.9821 132.584 26.5821C131.197 26.1554 130.157 25.4887 129.464 24.5821C128.851 23.7821 128.451 22.7954 128.264 21.6221C128.077 20.4221 127.984 18.7821 127.984 16.7021C127.984 14.7821 128.051 13.2621 128.184 12.1421C128.317 10.9954 128.597 10.0221 129.024 9.22206C129.504 8.34206 130.237 7.66206 131.224 7.18206C132.237 6.67539 133.611 6.35539 135.344 6.22206V18.3021C135.344 19.2087 135.384 19.8621 135.464 20.2621C135.544 20.6354 135.731 20.9154 136.024 21.1021C136.344 21.3154 136.837 21.4354 137.504 21.4621C138.357 21.5154 139.264 21.5421 140.224 21.5421C141.931 21.5421 143.171 21.5021 143.944 21.4221L145.984 21.2621V26.4221C144.917 26.7421 143.451 26.9554 141.584 27.0621C140.677 27.1421 139.611 27.1821 138.384 27.1821ZM159.29 14.6621H162.09C162.09 13.1687 161.943 12.2087 161.65 11.7821C161.49 11.5421 161.276 11.3954 161.01 11.3421C160.743 11.2621 160.356 11.2221 159.85 11.2221H159.29V6.14206H159.85C162.143 6.14206 163.903 6.32873 165.13 6.70206C166.383 7.07539 167.303 7.68873 167.89 8.54206C168.423 9.28873 168.743 10.2487 168.85 11.4221C168.983 12.5954 169.05 14.3554 169.05 16.7021V18.3021H159.29V14.6621ZM160.65 27.1821C158.196 27.1821 156.263 26.9821 154.85 26.5821C153.463 26.1554 152.423 25.4887 151.73 24.5821C151.116 23.7821 150.716 22.7954 150.53 21.6221C150.343 20.4221 150.25 18.7821 150.25 16.7021C150.25 14.7821 150.316 13.2621 150.45 12.1421C150.583 10.9954 150.863 10.0221 151.29 9.22206C151.77 8.34206 152.503 7.66206 153.49 7.18206C154.503 6.67539 155.876 6.35539 157.61 6.22206V18.3021C157.61 19.2087 157.65 19.8621 157.73 20.2621C157.81 20.6354 157.996 20.9154 158.29 21.1021C158.61 21.3154 159.103 21.4354 159.77 21.4621C160.623 21.5154 161.53 21.5421 162.49 21.5421C164.196 21.5421 165.436 21.5021 166.21 21.4221L168.25 21.2621V26.4221C167.183 26.7421 165.716 26.9554 163.85 27.0621C162.943 27.1421 161.876 27.1821 160.65 27.1821ZM184.675 17.2221C184.675 15.8087 184.662 14.8754 184.635 14.4221C184.582 13.6754 184.515 13.1821 184.435 12.9421C184.329 12.6754 184.142 12.5154 183.875 12.4621C183.609 12.3821 183.182 12.3421 182.595 12.3421H182.195V7.34206C183.235 6.56873 184.595 6.18206 186.275 6.18206C188.675 6.18206 190.289 6.91539 191.115 8.38206C191.489 9.02206 191.742 9.80873 191.875 10.7421C192.009 11.6487 192.075 12.7687 192.075 14.1021V26.8621H184.675V17.2221ZM173.115 6.46206H180.515V26.8621H173.115V6.46206ZM208.031 16.7021C208.031 15.3421 208.017 14.4354 207.991 13.9821C207.964 13.3421 207.884 12.8621 207.751 12.5421C207.617 12.1954 207.404 11.9821 207.111 11.9021C206.791 11.8221 206.351 11.7821 205.791 11.7821H205.231V6.14206H205.791C208.111 6.14206 209.924 6.32873 211.231 6.70206C212.537 7.04873 213.511 7.63539 214.151 8.46206C214.737 9.20873 215.111 10.2087 215.271 11.4621C215.457 12.6887 215.551 14.4354 215.551 16.7021C215.551 18.8087 215.484 20.4487 215.351 21.6221C215.244 22.7687 214.964 23.7154 214.511 24.4621C214.004 25.2887 213.244 25.9154 212.231 26.3421C211.217 26.7421 209.817 26.9954 208.031 27.1021V16.7021ZM205.791 27.1821C203.471 27.1821 201.657 27.0087 200.351 26.6621C199.044 26.3154 198.071 25.7287 197.431 24.9021C196.844 24.1554 196.457 23.1687 196.271 21.9421C196.111 20.7154 196.031 18.9687 196.031 16.7021C196.031 14.6221 196.097 12.9954 196.231 11.8221C196.364 10.6487 196.657 9.67539 197.111 8.90206C197.591 8.04873 198.337 7.42206 199.351 7.02206C200.364 6.59539 201.764 6.32873 203.551 6.22206V16.7021C203.551 18.0621 203.564 18.9554 203.591 19.3821C203.617 20.0221 203.697 20.5021 203.831 20.8221C203.964 21.1421 204.191 21.3421 204.511 21.4221C204.777 21.5021 205.204 21.5421 205.791 21.5421H206.351V27.1821H205.791Z" fill="#5D5D6D"/>
</svg>
